<svg xmlns="http://www.w3.org/2000/svg" width="200" height="136" fill="none"><clipPath id="a"><path d="M0 0h200v136H0z"/></clipPath><g clip-path="url(#a)"><rect width="80" height="80" x="84" y="26" fill="#f6dd2c" rx="40"/><rect width="64" height="64" x="100" y="42" fill="#fe0ac8" rx="32"/><path fill="#000" d="M64 102a4 4 0 01-2.5-.7c-.5-.5-1-1.2-1.3-2l-21-51.6c-.2-.2-.2-.5-.2-.9 0-.7.2-1.3.7-1.7.5-.6 1.1-.8 1.9-.8h13.2c1.5 0 2.6.8 3.3 2.3l12 33.2 12.3-33.2c.2-.6.6-1.1 1.1-1.5.5-.6 1.2-.8 2.1-.8H99c.7 0 1.3.2 1.8.8.5.4.8 1 .8 1.7l-.2 1-21 51.4c-.4 1-.9 1.6-1.5 2.1a4 4 0 01-2.4.7z"/><rect width="48" height="48" x="116" y="58" fill="#12e1fa" rx="24"/></g></svg>