<svg xmlns="http://www.w3.org/2000/svg" width="24" height="24" fill="none"><g fill="#fff"><path stroke="#171819" stroke-linejoin="round" stroke-width="1.5" d="M20.6 9.5c-.7 0-1.3.3-1.7.8a12 12 0 00-6.5-2l1.3-5.9 4.2 1c0 1 .8 1.8 1.8 1.8s1.9-.8 1.9-1.8-.9-1.9-1.9-1.9c-.7 0-1.4.4-1.7 1l-4.5-1c-.2 0-.5.1-.5.3l-1.4 6.5c-2.5.1-4.8.8-6.4 2a2.5 2.5 0 00-1.8-.8C.8 9.5-.1 13 2.3 14.2l-.1 1.2c0 4 4.4 7.1 9.8 7.1 5.5 0 9.9-3.2 9.9-7.1l-.1-1.2c2.3-1.2 1.4-4.7-1.2-4.7z"/><path d="M8 12.6a1.9 1.9 0 100 3.7 1.9 1.9 0 000-3.7zm6.2 1.9c0 1 .9 1.8 1.9 1.8a1.9 1.9 0 10-1.9-1.8z"/></g><path stroke="#171819" stroke-linejoin="round" d="M8 12.6a1.9 1.9 0 100 3.7 1.9 1.9 0 000-3.7zm6.2 1.9c0 1 .9 1.8 1.9 1.8a1.9 1.9 0 10-1.9-1.8z"/><path fill="#171819" d="M7.9 18.9c1.7 1.7 6.5 1.7 8.2 0 .2-.2.2-.5 0-.7a.5.5 0 00-.6 0c-1.4 1.4-5.7 1.4-7 0a.5.5 0 00-.6 0c-.2.2-.2.5 0 .7z"/></svg>