<svg width="16" height="16" fill="none" xmlns="http://www.w3.org/2000/svg"><path fill-rule="evenodd" clip-rule="evenodd" d="M7.97 0h.06a1 1 0 01-.01 2h-.04a1 1 0 010-2zm-4.2 2.33a1 1 0 010 1.41l-.03.03a1 1 0 01-1.42-1.4l.04-.05a1 1 0 011.42 0zm8.45 0a1 1 0 011.42 0l.04.03a1 1 0 01-1.42 1.41l-.03-.03a1 1 0 010-1.41zM1 6.98a1 1 0 011 1v.04a1 1 0 01-2 0v-.05a1 1 0 011-1zm14 0a1 1 0 011 1v.05a1 1 0 01-2-.01v-.04a1 1 0 011-1zM2.33 12.22a1 1 0 011.41 0l.03.04a1 1 0 01-1.4 1.42l-.05-.04a1 1 0 010-1.42zm11.34 0a1 1 0 010 1.42l-.03.04a1 1 0 01-1.41-1.42l.03-.03a1 1 0 011.41 0zM6.97 15a1 1 0 011.01-1h.04a1 1 0 110 2h-.05a1 1 0 01-1-1z" fill="#C8C8D0"/></svg>