<svg xmlns="http://www.w3.org/2000/svg" width="16" height="16" fill="none"><path fill="#C8C8D0" d="M1.7 10.6l.5.1v2.2c0 1 .7 1.8 1.7 1.8h1.7l.3.8a.7.7 0 101.3-.4l-.4-1.3c-.1-.3-.4-.5-.7-.5H4a.4.4 0 01-.4-.4v-2.7c0-.3-.2-.6-.5-.6l-.7-.3 1.2-2.5v-.3a5.1 5.1 0 015.1-5.1 5.1 5.1 0 013.9 8.4l-.3.5v.7l1.1 3.6a.7.7 0 101.4-.4l-1-3.3c-.1-.1 0-.3 0-.4A6.5 6.5 0 008.7 0C7.2 0 6 .4 5 1a6.5 6.5 0 00-2.8 5.4L1 8.9v.5c-.1.5.2 1 .7 1.2z"/><path fill="#C8C8D0" d="M12.4 6.5A3.7 3.7 0 005 5.2a1 1 0 001 1.3h2.1a2 2 0 012 2 .7.7 0 001.2.4c.6-.6 1-1.5 1-2.4z"/></svg>