<svg width="16" height="16" fill="none" xmlns="http://www.w3.org/2000/svg"><path d="M6.4 10.4c0-.4.03-.22-2.13-4.54A1.19 1.19 0 003.2 5.2c-.43 0-.85.22-1.07.66C-.05 10.22 0 10.01 0 10.4c0 1.1 1.43 2 3.2 2 1.77 0 3.2-.9 3.2-2zM2.08 8.63L3.2 6.4h.01l1.17 2.32L5 10H1.4l.68-1.37zM13.2 13.6H8.6V5.9a2 2 0 001.36-1.5h3.24a.4.4 0 00.4-.4v-.4a.4.4 0 00-.4-.4H9.83a2 2 0 00-3.66 0H2.8a.4.4 0 00-.4.4V4c0 .22.18.4.4.4h3.24A2 2 0 007.4 5.9v7.7H2.8a.4.4 0 00-.4.4v.4c0 .22.18.4.4.4h10.4a.4.4 0 00.4-.4V14a.4.4 0 00-.4-.4zM8 4.8a.8.8 0 110-1.6.8.8 0 010 1.6zm8 5.6c0-.4.03-.22-2.13-4.54a1.19 1.19 0 00-1.07-.66c-.43 0-.85.22-1.07.66-2.18 4.36-2.13 4.15-2.13 4.54 0 1.1 1.43 2 3.2 2 1.77 0 3.2-.9 3.2-2zm-5-.4l.68-1.37L12.8 6.4h.01l1.17 2.32.64 1.28H11z" fill="#C8C8D0"/></svg>