<svg width="58" height="19" fill="none" xmlns="http://www.w3.org/2000/svg">
  <path d="M11.916 9.376c0-1.101-.159-2.044-.476-2.828-.317-.803-.756-1.456-1.316-1.96a5.376 5.376 0 00-1.96-1.12 7.746 7.746 0 00-2.408-.364c-.99 0-1.81.065-2.464.196v12.348a7.74 7.74 0 001.232.196c.467.019.933.028 1.4.028 1.941 0 3.425-.541 4.452-1.624 1.027-1.101 1.54-2.725 1.54-4.872zm3.08-.028c0 1.512-.215 2.837-.644 3.976-.43 1.12-1.045 2.053-1.848 2.8-.784.747-1.736 1.307-2.856 1.68-1.12.355-2.361.532-3.724.532-.597 0-1.297-.028-2.1-.084a9.349 9.349 0 01-2.24-.42c-.859-.28-1.288-.784-1.288-1.512V2.292c0-.317.084-.56.252-.728.187-.187.439-.327.756-.42A9.36 9.36 0 013.432.752 23.07 23.07 0 015.672.64c1.381 0 2.641.177 3.78.532 1.157.355 2.147.896 2.968 1.624.821.728 1.456 1.643 1.904 2.744.448 1.083.672 2.352.672 3.808zm5.606 3.584c.262 1.064.766 1.857 1.512 2.38.766.504 1.736.756 2.912.756.784 0 1.503-.121 2.156-.364.654-.243 1.176-.504 1.568-.784.523.299.784.719.784 1.26 0 .317-.121.616-.364.896-.242.261-.578.495-1.008.7-.41.187-.905.336-1.484.448a9.283 9.283 0 01-1.82.168c-1.082 0-2.072-.15-2.968-.448a6.157 6.157 0 01-2.268-1.344c-.634-.597-1.129-1.335-1.484-2.212-.336-.877-.504-1.895-.504-3.052 0-1.12.168-2.1.504-2.94.336-.859.794-1.568 1.372-2.128a5.749 5.749 0 012.044-1.316 7.019 7.019 0 012.52-.448c.896 0 1.708.15 2.436.448.747.28 1.382.681 1.904 1.204.542.504.952 1.11 1.232 1.82.299.71.448 1.484.448 2.324 0 .467-.112.812-.336 1.036-.224.205-.55.345-.98.42l-8.176 1.176zm3.472-6.16c-1.026 0-1.885.345-2.576 1.036-.672.69-1.026 1.68-1.064 2.968l6.888-.98c-.074-.84-.382-1.55-.924-2.128-.541-.597-1.316-.896-2.324-.896zm15.466.112c-.597 0-1.148.103-1.652.308a3.45 3.45 0 00-1.316.868c-.355.392-.644.877-.868 1.456-.205.56-.308 1.213-.308 1.96 0 1.475.383 2.604 1.148 3.388.765.765 1.764 1.148 2.996 1.148.71 0 1.316-.093 1.82-.28.504-.187.943-.41 1.316-.672.243.15.439.327.588.532.15.205.224.457.224.756 0 .579-.383 1.064-1.148 1.456-.747.392-1.736.588-2.968.588-1.027 0-1.97-.14-2.828-.42a5.844 5.844 0 01-2.184-1.288c-.616-.579-1.101-1.297-1.456-2.156-.336-.877-.504-1.895-.504-3.052s.177-2.175.532-3.052c.373-.877.868-1.605 1.484-2.184a6.11 6.11 0 012.212-1.288 7.88 7.88 0 012.66-.448c.616 0 1.167.056 1.652.168.504.112.933.27 1.288.476.355.187.625.41.812.672.205.243.308.504.308.784 0 .261-.075.504-.224.728-.13.205-.299.364-.504.476a7.846 7.846 0 00-1.316-.644c-.467-.187-1.055-.28-1.764-.28zm12.05 9.24c.654 0 1.223-.065 1.708-.196.486-.13.831-.27 1.036-.42v-3.556l-3.052.308c-.858.093-1.502.29-1.931.588-.43.28-.645.719-.645 1.316 0 .616.234 1.101.7 1.456.467.336 1.195.504 2.184.504zm-.056-11.62c1.736 0 3.118.383 4.145 1.148 1.026.747 1.54 1.932 1.54 3.556v6.524c0 .43-.103.765-.309 1.008a3.144 3.144 0 01-.783.644c-.486.28-1.111.523-1.877.728-.765.205-1.651.308-2.66.308-1.81 0-3.229-.355-4.256-1.064-1.008-.71-1.512-1.755-1.512-3.136 0-1.232.392-2.175 1.176-2.828.803-.653 1.951-1.055 3.445-1.204l3.892-.392V9.18c0-.821-.271-1.419-.813-1.792-.522-.373-1.26-.56-2.212-.56-.746 0-1.465.103-2.156.308-.69.205-1.306.439-1.848.7a2.161 2.161 0 01-.475-.532 1.42 1.42 0 01-.197-.728c0-.317.075-.579.224-.784.169-.205.42-.383.757-.532a6.306 6.306 0 011.791-.56c.672-.13 1.382-.196 2.129-.196z" fill="#000"/>
</svg>
