<svg width="59" height="59" fill="none" xmlns="http://www.w3.org/2000/svg">
  <path d="M15.457 43.813V15.968h17.262c2.789 0 5.18 1.37 7.172 4.113 2.015 2.719 3.023 5.988 3.023 9.809 0 3.843-1.008 7.125-3.023 9.843-1.993 2.72-4.383 4.078-7.172 4.078H15.457zm2.531-2.532h14.73c2.087 0 3.868-1.113 5.344-3.34 1.5-2.226 2.25-4.91 2.25-8.05 0-3.164-.75-5.848-2.25-8.051-1.476-2.227-3.257-3.34-5.343-3.34h-14.73v22.781zm-5.062 5.063h19.793c3.492 0 6.492-1.606 9-4.817 2.531-3.234 3.797-7.113 3.797-11.636 0-2.977-.586-5.73-1.758-8.262-1.149-2.531-2.707-4.524-4.676-5.977-1.945-1.476-4.066-2.214-6.363-2.214H12.926v32.906zm-2.531 2.531V10.906h22.324c2.742 0 5.297.844 7.664 2.531 2.367 1.688 4.242 3.997 5.625 6.926 1.406 2.907 2.11 6.082 2.11 9.528 0 3.422-.704 6.597-2.11 9.527-1.383 2.93-3.258 5.238-5.625 6.926-2.367 1.687-4.922 2.531-7.664 2.531H10.394zm-2.532 2.531H32.72c3.21 0 6.187-.96 8.93-2.883 2.765-1.921 4.968-4.535 6.609-7.84 1.64-3.304 2.46-6.902 2.46-10.792 0-3.868-.82-7.453-2.46-10.758-1.64-3.328-3.844-5.953-6.61-7.875-2.765-1.922-5.742-2.883-8.93-2.883H7.864v43.031zm-2.531 2.532V5.843h27.387c3.656 0 7.066 1.078 10.23 3.234 3.164 2.133 5.684 5.05 7.559 8.754 1.875 3.703 2.812 7.723 2.812 12.059 0 4.336-.937 8.355-2.812 12.058-1.875 3.703-4.395 6.633-7.559 8.79-3.164 2.132-6.574 3.199-10.23 3.199H5.332zm-2.531 2.53h29.918c3.07 0 6.035-.702 8.894-2.109a23.766 23.766 0 007.418-5.66c2.086-2.367 3.75-5.191 4.992-8.472a28.654 28.654 0 001.899-10.336c0-3.586-.633-7.02-1.899-10.301-1.242-3.281-2.906-6.106-4.992-8.473a23.523 23.523 0 00-7.418-5.695c-2.86-1.406-5.824-2.11-8.894-2.11H2.8V56.47zM32.719 59H.269V.781h32.45c4.57 0 8.836 1.301 12.797 3.903 3.96 2.601 7.113 6.14 9.457 10.617 2.367 4.476 3.55 9.34 3.55 14.59 0 3.937-.703 7.71-2.109 11.32-1.383 3.586-3.234 6.68-5.555 9.281-2.32 2.602-5.074 4.676-8.261 6.223C39.434 58.238 36.14 59 32.718 59z" fill="#000"/>
</svg>
