<svg width="24" height="24" fill="none" xmlns="http://www.w3.org/2000/svg"><path d="M21.75 2.41c-1.62.75-3.8 1.62-5.87 1.62-2.49 0-4.48-1.52-7.55-1.52-1.25 0-2.36.23-3.38.63a2.1 2.1 0 10-2.8 1.71v17.87c0 .3.24.53.53.53h.35c.3 0 .53-.24.53-.53v-5.34a13.34 13.34 0 015.96-1.28c2.5 0 4.48 1.53 7.55 1.53a9.8 9.8 0 005.72-1.9c.29-.2.46-.52.46-.87V3.36c0-.76-.8-1.27-1.5-.95zM2.85 3.74a.88.88 0 01-.87-.88c0-.48.4-.88.88-.88s.88.4.88.88-.4.88-.88.88zm19 10.95a8.64 8.64 0 01-4.78 1.53c-2.8 0-4.75-1.53-7.55-1.53-2.02 0-4.5.45-5.96 1.15V5.44a8.64 8.64 0 014.77-1.52c2.8 0 4.75 1.52 7.55 1.52 2.02 0 4.49-.83 5.96-1.52v10.77z" fill="#101119"/></svg>