<svg fill="none" height="24" viewBox="0 0 24 24" width="24" xmlns="http://www.w3.org/2000/svg" xmlns:xlink="http://www.w3.org/1999/xlink"><clipPath id="a"><path d="m0 0h24v24h-24z"/></clipPath><g clip-path="url(#a)"><path d="m19.1993 10.9496c-.3315 0-.6.2685-.6.6s.2685.6.6.6.6-.2685.6-.6c0-.3311-.2685-.6-.6-.6zm3.4083-1.22925c-.0228-.01612-2.1945-1.34962-2.1945-1.34962-.0952-.05887-.3648-.19012-.6881-.282-.0492-.27775-.1104-.55326-.1834-.82574-.2208-.82388-1.0751-3.51262-2.7944-3.51299h-.0004c-1.4235 0-1.6575 1.56899-1.6684 1.62487-1.2034-.64312-2.0797-.49312-2.6137.04087-.3267.32663-.7707 1.06312-.1635 2.37299-1.1659-.61424-2.30815-1.03874-3.30227-1.03874-1.71486 0-3.23548.68737-4.42085 1.96612-.50663-.49275-1.1715-.76613-1.8795-.76613-.72112 0-1.39949.28088-1.909114.79088-1.052621 1.05262-1.052621 2.76564 0 3.81824.509994.51 1.187994.7909 1.909494.7909.47737 0 .92999-.1339 1.33162-.3675.13462.2373.28837.4668.48112.6757l2.02649 2.1953-.93787.507c-.24678.1641-.44913.3868-.58902.6481-.13988.2613-.21296.5532-.21273.8496v.8899c0 .6487.33525 1.2311.89663 1.5566.28237.1635.59287.2456.90374.2456.306 0 .61275-.0795.89287-.2396l2.06962-1.1824.95587 1.0354c.1124.1217.2488.2188.4006.2852s.3157.1007.4814.1007h6.0004c.6629 0 1.1999-.5374 1.1999-1.2 0-1.3234-1.0766-2.4-2.3999-2.4h-1.8l2.64-1.2h3.6359c1.833 0 3.3244-1.4914 3.3244-3.3244-.0004-1.071-.5209-2.0824-1.3924-2.70485zm-18.99815 2.08945c-.91987.7185-1.75799.114-1.97174-.0993-.58575-.5858-.58575-1.5356 0-2.1214.58538-.58537 1.53562-.58612 2.12137 0 .04912.04913.08287.10613.12187.16013-.29287.65357-.38774 1.36837-.2715 2.06057zm3.28687 7.4588c-.39488.2283-.89775-.057-.89775-.5209v-.8899c0-.201.09975-.3877.219-.4706l1.15987-.6247 1.34849 1.4609zm13.77898-4.719h-3.876l-2.4 1.0001v-.0847c0-1.8657-1.2529-3.5262-3.0458-4.038l-1.58919-.4542c-.76725-.2175-1.09088.9364-.33038 1.1543l1.58927.4541c1.2821.3656 2.1765 1.5514 2.1765 2.8838v2.6846h3c.6622 0 1.2.5385 1.2 1.2h-6.0008l-6.00558-6.5055c-.83849-.9083-.84974-2.3014-.03037-3.22725.75562-.85349 1.92487-1.66687 3.63598-1.66687 2.14987 0 5.72777 2.82072 7.80037 4.19962 0-1.1685-.0199-1.1539.1327-1.6129-.5741-.1324-1.4156-.66972-2.2188-1.47297-1.1599-1.1595-1.7865-2.41312-1.3999-2.79936.4027-.40275 1.6927.29249 2.7997 1.39987.1219.12187.2344.24524.3443.36787-.4361-1.66912-.303-3.08211.2895-3.08211.5227 0 1.2345 1.12687 1.6353 2.62386.1538.573.2385 1.11975.2618 1.59337.5314-.03788.9289.12112 1.1415.22612l2.1244 1.30315c.2751.1965.4994.4559.6541.7566.1548.3007.2354.634.2354.9721.0003 1.1734-.951 2.1244-2.124 2.1244z" fill="#101119"/></g></svg>