<svg fill="none" height="24" width="24" xmlns="http://www.w3.org/2000/svg"><clipPath id="a"><path d="M0 0h24v24H0z"/></clipPath><g clip-path="url(#a)"><path d="M19.2 10.95a.6.6 0 100 1.2.6.6 0 000-1.2zm3.4-1.23l-2.19-1.35c-.1-.06-.36-.19-.69-.28a9.79 9.79 0 00-.18-.83c-.22-.82-1.07-3.51-2.8-3.51-1.42 0-1.65 1.57-1.66 1.62-1.2-.64-2.08-.49-2.62.05-.32.32-.77 1.06-.16 2.37A7.53 7.53 0 009 6.75a5.9 5.9 0 00-4.42 1.97 2.68 2.68 0 00-3.8.02 2.7 2.7 0 001.92 4.61c.48 0 .93-.13 1.33-.37.14.24.29.47.48.68l2.03 2.2-.94.5a1.8 1.8 0 00-.8 1.5v.89c0 .65.33 1.23.9 1.55a1.8 1.8 0 001.8.01l2.06-1.18.96 1.03a1.2 1.2 0 00.88.39h6c.66 0 1.2-.54 1.2-1.2a2.4 2.4 0 00-2.4-2.4h-1.8l2.64-1.2h3.64a3.33 3.33 0 001.93-6.03zm-19 2.09c-.91.72-1.75.11-1.96-.1a1.5 1.5 0 012.12-2.12l.12.16c-.3.65-.39 1.37-.27 2.06zm3.3 7.46a.6.6 0 01-.9-.52v-.9c0-.2.1-.38.22-.46l1.16-.63 1.35 1.46zm13.78-4.72H16.8l-2.4 1v-.09a4.22 4.22 0 00-3.05-4.03l-1.59-.46c-.76-.21-1.09.94-.33 1.16l1.6.45a3.01 3.01 0 012.17 2.88v2.69h3c.66 0 1.2.54 1.2 1.2h-6l-6-6.5a2.4 2.4 0 01-.04-3.23A4.72 4.72 0 019 7.95c2.15 0 5.73 2.82 7.8 4.2 0-1.17-.02-1.15.13-1.61a5.42 5.42 0 01-2.22-1.48c-1.16-1.16-1.78-2.4-1.4-2.8.4-.4 1.7.3 2.8 1.4l.35.37c-.44-1.67-.3-3.08.29-3.08.52 0 1.23 1.13 1.63 2.62.16.58.24 1.12.26 1.6.54-.04.93.12 1.15.22l2.12 1.3a2.12 2.12 0 01-1.23 3.86z" fill="#101119"/></g></svg>