<svg width="24" height="24" fill="none" xmlns="http://www.w3.org/2000/svg"><path d="M4 20.17h1.6l-1.84-2.75 3.59-.72a.67.67 0 00.52-.52l.72-3.59 3.04 2.03c.22.15.52.15.74 0l3.04-2.03.72 3.59c.05.26.26.47.52.52l3.59.72-1.84 2.75H20l1.9-2.84a.67.67 0 00-.42-1.03l-4.13-.82-.82-4.13a.67.67 0 00-1.03-.42L12 13.26l-3.5-2.33a.68.68 0 00-.62-.06.67.67 0 00-.4.48l-.83 4.13-4.12.82a.67.67 0 00-.43 1.03L4 20.17zM8.23 6.4c.13.13.34.13.47 0l2.62-2.62v6.72c0 .18.15.33.34.33h.66c.19 0 .34-.15.34-.33V3.78l2.62 2.62c.13.13.34.13.47 0l.47-.47a.33.33 0 000-.47L12.47 1.7a.67.67 0 00-.94 0L7.76 5.46a.33.33 0 000 .47l.48.47zm15.43 15.1H.33a.33.33 0 00-.33.33v.67c0 .18.15.33.33.33h23.34c.18 0 .33-.15.33-.33v-.67a.33.33 0 00-.33-.33zm-11.68-5.33a4.66 4.66 0 00-4.6 4h1.33a3.33 3.33 0 016.54 0h1.33a4.66 4.66 0 00-4.6-4z" fill="#101119"/></svg>